# xmcd
#
# Track frame offsets:
#	183
#	13750
#	32130
#	42235
#	52515
#	64038
#	77398
#	88373
#	98563
#	113935
#	121820
#	136925
#	147530
#	160658
#
# Disc length: 2347
#
# Revision: 3
# Processed by: cddbd v1.5.1PL0 Copyright (c) Steve Scherf et al.
# Submitted via: audiograbber 1.81.03
# Normalized: r2:DSETVAR1
#
DISCID=ad09290e
DTITLE=Various Artist - Country Hits - volume 2
DYEAR=1900
DGENRE=
TTITLE0=Kenny Rogers - Sleep Comes Easy
TTITLE1=Johnny Paycheck - Billy Jack Washburn
TTITLE2=Donna Fargo - Sticks And Stones
TTITLE3=Kenny Rogers - Where Does Rosie Go
TTITLE4=Dolly Parton - Making Believe
TTITLE5=Ferlin Husky - Fallen Star
TTITLE6=Waylon Jennings - Mamou
TTITLE7=Willie Nelson - Broken Promises
TTITLE8=Kenny Rogers - For The Good Times
TTITLE9=Roy Drusky - Hello Walls
TTITLE10=Jeanne C. Riley - Harper Valley P.T.A.
TTITLE11=Patsy Cline - Honky Tonk Merry Go Round
TTITLE12=Donna Fargo - Daddy
TTITLE13=Kenny Rogers - My Washington Woman
EXTD=
EXTT0=Kenny Rogers
EXTT1=Johnny Paycheck
EXTT2=Donna Fargo
EXTT3=Kenny Rogers
EXTT4=Dolly Parton
EXTT5=Ferlin Husky
EXTT6=Waylon Jennings
EXTT7=Willie Nelson
EXTT8=Kenny Rogers
EXTT9=Roy Drusky
EXTT10=Jeanne C. Riley
EXTT11=Patsy Cline
EXTT12=Donna Fargo
EXTT13=Kenny Rogers
PLAYORDER=
